<?xml version="1.0" encoding="utf-8"?>
<svg version="1.1" id="Twitkit" xmlns="http://www.w3.org/2000/svg" xmlns:xlink="http://www.w3.org/1999/xlink" viewBox="0 0 72 72" xml:space="preserve">
<g id="火" fill="#F4900C">
	<path d="M70,38c0-4.1-0.7-8.1-2.1-11.7C67,37,61.3,42.5,55.3,40c-5.6-2.4-1.8-11.8-1.6-16.3C54.2,16,53.7,7.3,39.8,0c5.8,11,0.7,17.9-4.7,18.3c-5.9,0.5-11.3-5.1-9.3-14.1c-6.5,4.8-6.7,12.8-4.7,18c2.1,5.4-0.1,9.9-5.2,10.4c-5.7,0.6-8.8-6.1-5.9-16.7c-5,5.9-8.1,13.6-8.1,22c0,18.8,15.2,34,34,34S70,56.8,70,38z"/>
</g>
<g id="棍" fill="#D99E82">
	<path d="M70.3,54.9c-0.5,0.1-1.1,0.1-1.6-0.2l-67.6-39c-1-0.6-1.4-1.9-0.8-3.1s1.9-1.4,3.1-0.8l67.6,39c1,0.6,1.4,1.9,0.8,3.1C71.3,54.4,70.9,54.8,70.3,54.9z"/>
</g>
<g id="鸽" fill="#1DA1F2">
	<path d="M6,18.5c2.3,0.4,4.6,0.5,7,0.3c-2.7-0.9-5.1-2.7-6.6-5.2c2.5,0.8,5.2,1.2,8,1.1c1.6-2.7,4.3-4.8,7.5-5.6c6.3-1.5,12.7,2.5,14.2,8.8c0.2,0.8,0.3,1.8,0.3,2.7c9.5-2.7,16.9-9.2,20.9-17.5c1.4,1.4,2.4,3.3,2.9,5.4c0.9,4-0.3,7.9-2.8,10.7c1.9-0.6,3.5-1.4,4.9-2.7l0,0.1c1.2,5.6-1.6,11.1-6.7,13.4c1,0.1,2.1,0,3.1-0.3c0.7-0.1,1.5-0.4,2.1-0.7c-0.4,4.9-3.9,9.3-8.9,10.5c4.6,2.2,10.1,2.9,15.4,1.6c0.9-0.2,1.9-0.5,2.7-0.8c-4.3,4.5-9.9,7.8-16.4,9.3c-21.1,4.9-36.7-10-40.2-25.2c-0.1-0.5-0.2-1-0.3-1.5C10.5,22.1,8.1,20.5,6,18.5L6,18.5z"/>
</g>
<g id="焰" fill="#FFCC4D">
	<path d="M56.8,48c0.3,6.2-5.1,8.6-8,7.4c-4.2-1.7-3.1-4.6-4.2-10.6s-5.3-10.2-11.4-12C37.7,45.5,30.6,50.1,27,51c-3.7,0.9-7.5,0-7.9-8C14.7,47.3,12,53.3,12,60c0,0.7,0,1.5,0.1,2.2c6.1,6,14.6,9.8,23.9,9.8s17.8-3.8,23.9-9.8C60,61.4,60,60.7,60,60C60,55.6,58.8,51.5,56.8,48z"/>
</g>
<g id="叉" fill="#99AAB5" display="none">
	<circle display="none" cx="29.2" cy="29.7" r="1"/>
	<path d="M28.7,28.9l1,1.7l-6.1,3.5l-1-1.7L28.7,28.9z"/>
	<circle display="none" cx="31.2" cy="33.2" r="1"/>
	<path d="M30.7,32.3l1,1.7l-6.1,3.5l-1-1.7L30.7,32.3z"/>
	<circle display="none" cx="33.2" cy="36.7" r="1"/>
	<path d="M32.7,35.8l1,1.7L27.6,41l-1-1.7L32.7,35.8z M18.9,38l2,3.5l-17.3,10l-2-3.5L18.9,38z"/>
	<circle cx="2.6" cy="49.7" r="2"/>
	<path d="M26.6,39.3c-0.5,0.3-1.1,0.1-1.4-0.4s-0.1-1.1,0.4-1.4l-1-1.7c-0.5,0.3-1.1,0.1-1.4-0.4s-0.1-1.1,0.4-1.4l-1-1.7c-3.3,1.9-5.6,4.4-3.6,7.8c2,3.5,5.2,2.8,8.6,0.8L26.6,39.3z"/>
	<circle cx="23.1" cy="33.2" r="1"/>
	<circle cx="25.1" cy="36.7" r="1"/>
	<circle cx="27.1" cy="40.2" r="1"/>
</g>
</svg>
